# xmcd
#
# Track frame offsets:
#	150
#	32400
#	44650
#	57752
#	76727
#	95705
#	108307
#	130917
#	147080
#	166815
#	181177
#	196777
#	214175
#	233987
#	250585
#	272890
#	286435
#
# Disc length: 4124 seconds
#
# Revision: 10
# Processed by: cddbd v1.5.2PL0 Copyright (c) Steve Scherf et al.
# Submitted via: EasyCDDAExtractor 16.1.0.1
#
DISCID=ea101a11
DTITLE=Eric Clapton - The Best of Eric Clapton
DYEAR=1991
DGENRE=Blues
TTITLE0=Layla
TTITLE1=Badge
TTITLE2=I Feel Free
TTITLE3=Sunshine of Your Love
TTITLE4=Eric Clapton - Crossroads
TTITLE5=Strange Brew
TTITLE6=White Room
TTITLE7=Cocaine
TTITLE8=I Shot The Sheriff
TTITLE9=After Midnight
TTITLE10=Swing Low, Sweet Chariot
TTITLE11=Lay Down Sally
TTITLE12=Knockin' On Heaven's Door
TTITLE13=Wonderful Tonight
TTITLE14=Let It Grow
TTITLE15=Promises
TTITLE16=Bell Bottom Blues
EXTD=YEAR: 1991
EXTT0=Derek and The Dominos, 1970
EXTT1=Cream, 1969
EXTT2=Cream, 1966
EXTT3=Cream, 1967
EXTT4=Cream, 1968
EXTT5=Cream, 1967
EXTT6=Cream, 1968
EXTT7=Cream, 1977
EXTT8=Eric Clapton, 1974
EXTT9=Eric Clapton, 1988
EXTT10=Eric Clapton, 1975
EXTT11=Eric Clapton, 1977
EXTT12=Eric Clapton, 1975
EXTT13=Eric Clapton, 1977
EXTT14=Eric Clapton, 1974
EXTT15=Eric Clapton, 1978
EXTT16=Derek and The Dominos, 1970
PLAYORDER=
